<?xml version="1.0" encoding="UTF-8" standalone="no"?>
<svg
   class="MuiSvgIcon-root MuiSvgIcon-fontSizeLarge  css-c1sh5i"
   focusable="false"
   aria-hidden="true"
   viewBox="0 0 96 96"
   data-testid="SettingsIcon"
   aria-label="fontSize large"
   version="1.1"
   id="svg1"
   sodipodi:docname="settings.svg"
   width="96"
   height="96"
   inkscape:export-filename="settings.png"
   inkscape:export-xdpi="96.473656"
   inkscape:export-ydpi="96.473656"
   inkscape:version="1.3.2 (091e20e, 2023-11-25)"
   xmlns:inkscape="http://www.inkscape.org/namespaces/inkscape"
   xmlns:sodipodi="http://sodipodi.sourceforge.net/DTD/sodipodi-0.dtd"
   xmlns="http://www.w3.org/2000/svg"
   xmlns:svg="http://www.w3.org/2000/svg">
  <defs
     id="defs1" />
  <sodipodi:namedview
     id="namedview1"
     pagecolor="#ffffff"
     bordercolor="#000000"
     borderopacity="0.25"
     inkscape:showpageshadow="2"
     inkscape:pageopacity="0.0"
     inkscape:pagecheckerboard="0"
     inkscape:deskcolor="#d1d1d1"
     inkscape:zoom="4.9166667"
     inkscape:cx="35.59322"
     inkscape:cy="38.745763"
     inkscape:window-width="1600"
     inkscape:window-height="858"
     inkscape:window-x="0"
     inkscape:window-y="42"
     inkscape:window-maximized="1"
     inkscape:current-layer="svg1" />
  <path
     d="m 84.285794,52.589635 c 0.204602,-1.496859 0.306903,-3.043613 0.306903,-4.690158 0,-1.596649 -0.102301,-3.193298 -0.358054,-4.690157 L 94.618194,35.325865 C 95.538903,34.627331 95.794656,33.280158 95.232,32.282252 L 85.411105,15.717016 C 84.797299,14.61932 83.518536,14.270053 82.393225,14.61932 L 70.168257,19.409267 C 67.610732,17.513246 64.899756,15.916597 61.881876,14.71911 L 60.040458,2.0457068 C 59.835856,0.84821991 58.812846,0 57.585234,0 H 37.94344 C 36.715828,0 35.743969,0.84821991 35.539367,2.0457068 L 33.697949,14.71911 c -3.017879,1.197487 -5.780006,2.844032 -8.286381,4.690157 L 13.1866,14.61932 c -1.125311,-0.399163 -2.404074,0 -3.01788,1.097696 L 0.39897556,32.282252 c -0.61380596,1.047801 -0.40920397,2.345079 0.61380594,3.043613 L 11.396332,43.20932 c -0.255752,1.496859 -0.460354,3.143403 -0.460354,4.690157 0,1.546754 0.102301,3.193299 0.358053,4.690158 L 0.91048053,60.47309 c -0.92070894,0.698534 -1.17646142,2.045707 -0.61380596,3.043613 L 10.11757,80.081939 c 0.613806,1.097696 1.892568,1.446963 3.017879,1.097696 l 12.224969,-4.789948 c 2.557525,1.896021 5.268501,3.492671 8.28638,4.690158 l 1.841418,12.673403 c 0.255753,1.197487 1.227612,2.045707 2.455224,2.045707 h 19.641794 c 1.227612,0 2.250622,-0.84822 2.404074,-2.045707 l 1.841418,-12.673403 c 3.017879,-1.197487 5.780006,-2.794137 8.28638,-4.690158 l 12.224969,4.789948 c 1.125311,0.399162 2.404073,0 3.017879,-1.097696 L 95.18085,63.516703 c 0.613806,-1.097697 0.358053,-2.345079 -0.613806,-3.043613 z M 47.764335,65.861781 c -10.127798,0 -18.414178,-8.083036 -18.414178,-17.962304 0,-9.879267 8.28638,-17.962304 18.414178,-17.962304 10.127802,0 18.414183,8.083037 18.414183,17.962304 0,9.879268 -8.286381,17.962304 -18.414183,17.962304"
     id="path1"
     inkscape:label="path1"
     style="stroke-width:5.0519" />
</svg>
